<svg
  xmlns="http://www.w3.org/2000/svg" xml:space="preserve" id="Layer_1" width="300" height="124" x="0" y="0" viewBox="0 0 300 124">
  <style id="style1" type="text/css">.st0{fill:#006db1}.st1{fill:#6aaf23}</style>
  <g id="g8" transform="translate(.1 -12.9)">
    <path id="path1" d="M224.7 114c3.5 4.7 6.5 8.9 13.1 5.2 13.5-7.7 24.4-25.2 41.8-21.8 10.5 1.8 17.4 18.9 19.4 23.9l-11.3 9.1c-1.4-.9-8.7-21.9-18.6-19.1-8.8 2.5-21.6 19-37.4 23.5-6.9 2-13.8-1.8-17.4-7.8-4.5-7.4-7.4-13.3-7.8-16.2l11.9-8.3c1.4 3.1 3.7 8 6.3 11.5" class="st0"/>
    <path id="path2" d="M141.1 125.3c-3.1-4.6-7.6-11.1-10.4-12.2-10.2-3.9-28.1 19.8-39.2 22.4-15.3 3.6-22.4-9.4-28.7-23.9L75 101.4c4.8 11.3 9.6 22.2 15.7 19.6 14.2-6.1 24.3-19.6 39.2-23.5 18.1-4.8 18.3 18.3 30.5 21.8 11.3 2.6 27.1-17.6 28.3-17.3l6.1 10.1c-27.7 25.6-42.3 30.3-53.7 13.2" class="st0"/>
    <path id="path3" d="M34.9 76.6c-6.7 20.1-13.1 39.2-19.2 59.2H.9C8.8 107.9 18.4 80 27.1 52.2h14.8c-1.7 7.8-4.3 16.5-7 24.4" class="st0"/>
    <path id="path4" d="M83.7 13.9c7.8 13 6.1 29.6.9 43.5C78.7 73.1 68 86.1 54.1 95.7c-2.6-4.4-6.9-12-7-12.2 18.3-13.1 30.5-36.6 22.6-59.2 4.4-3.5 9.6-7 14-10.4" class="st0"/>
    <g id="g7">
      <path id="path5" d="M122.5 66.2c-1.8 0-4-.1-5.3-.3v18.7h-8.8V39.9c3.6-1.5 9-2.6 14.9-2.6 13.7 0 19.5 6.3 19.5 14.5-.1 8-5.9 14.4-20.3 14.4M123 42c-2.5 0-4.7.5-5.9.9V61c1.3.3 3.3.5 5.1.5 8.6 0 11.8-3.8 11.8-9.8.1-6.2-3.2-9.7-11-9.7" class="st1"/>
      <path id="path6" d="M193.3 84.6h-7.5L176.9 55c-.8-2.7-1.1-5.3-1.1-5.3h-.1s-.3 2.6-1.1 5.3l-8.8 29.6h-7.5L145 38.3h9l7.7 31.3c.7 2.6.9 5.3.9 5.3h.1s.4-2.6 1.1-5.3l9-31.3h6.3l9 31.3c.7 2.5 1 5.3 1 5.3h.1s.3-2.8.9-5.3l7.9-31.3h8.2z" class="st1"/>
      <path id="path7" d="m243.2 84.6-22.4-31.7c-1.7-2.4-2.9-4.7-2.9-4.7h-.1s.2 2.7.2 5.5v30.9h-7.3V38.3h8.3l21.2 29.8c1.9 2.6 3 4.8 3 4.8h.1s-.3-2.6-.3-5.4V38.3h7.4v46.3z" class="st1"/>
    </g>
  </g>
</svg>